REM DIRINDEX 1\2\5,1\2\6,1\2\7,1\2\8,1\3\9,1\3\10,1\3\11,1\4\12,1\4\13,1\4\14,1\4\15,1\4\16
REM DIRNAME folder01,folder02,folder03,folder04,folder05,folder06,folder07,folder08,folder09,folder10,folder11,folder12,folder13,folder14,folder15,folder16
TITLE ""
FILE "1200_sec02_0284_0291.mp3" MP3
  TRACK 01 AUDIO
    TITLE "0:"
    INDEX 01 00:00:00
  TRACK 02 AUDIO
    TITLE "12:cjc034_04773"
    INDEX 01 00:00:17
  TRACK 03 AUDIO
    TITLE "0:"
    INDEX 01 00:01:52
  TRACK 04 AUDIO
    TITLE "13:cjc034_04774"
    INDEX 01 00:02:08
  TRACK 05 AUDIO
    TITLE "0:"
    INDEX 01 00:03:37
  TRACK 06 AUDIO
    TITLE "14:cjc034_04775"
    INDEX 01 00:03:68
  TRACK 07 AUDIO
    TITLE "0:"
    INDEX 01 00:05:28
  TRACK 08 AUDIO
    TITLE "15:cjc034_04776"
    INDEX 01 00:05:59
  TRACK 09 AUDIO
    TITLE "0:"
    INDEX 01 00:09:69
  TRACK 10 AUDIO
    TITLE "12:cjc034_04777"
    INDEX 01 00:11:27
  TRACK 11 AUDIO
    TITLE "0:"
    INDEX 01 00:12:30
  TRACK 12 AUDIO
    TITLE "13:cjc034_04778"
    INDEX 01 00:12:63
  TRACK 13 AUDIO
    TITLE "0:"
    INDEX 01 00:18:21
  TRACK 14 AUDIO
    TITLE "14:cjc034_04779"
    INDEX 01 00:18:52
  TRACK 15 AUDIO
    TITLE "0:"
    INDEX 01 00:19:58
  TRACK 16 AUDIO
    TITLE "15:cjc034_04780"
    INDEX 01 00:20:14
  TRACK 17 AUDIO
    TITLE "0:"
    INDEX 01 00:23:48
  TRACK 18 AUDIO
    TITLE "12:cjc034_04781"
    INDEX 01 00:25:07
  TRACK 19 AUDIO
    TITLE "0:"
    INDEX 01 00:26:30
  TRACK 20 AUDIO
    TITLE "13:cjc034_04782"
    INDEX 01 00:26:67
  TRACK 21 AUDIO
    TITLE "0:"
    INDEX 01 00:29:48
  TRACK 22 AUDIO
    TITLE "14:cjc034_04783"
    INDEX 01 00:30:06
  TRACK 23 AUDIO
    TITLE "0:"
    INDEX 01 00:31:31
  TRACK 24 AUDIO
    TITLE "15:cjc034_04784"
    INDEX 01 00:31:63
  TRACK 25 AUDIO
    TITLE "0:"
    INDEX 01 00:36:66
  TRACK 26 AUDIO
    TITLE "12:cjc034_04785"
    INDEX 01 00:38:24
  TRACK 27 AUDIO
    TITLE "0:"
    INDEX 01 00:39:54
  TRACK 28 AUDIO
    TITLE "13:cjc034_04786"
    INDEX 01 00:40:13
  TRACK 29 AUDIO
    TITLE "0:"
    INDEX 01 00:41:36
  TRACK 30 AUDIO
    TITLE "14:cjc034_04787"
    INDEX 01 00:41:69
  TRACK 31 AUDIO
    TITLE "0:"
    INDEX 01 00:43:27
  TRACK 32 AUDIO
    TITLE "15:cjc034_04788"
    INDEX 01 00:43:58
  TRACK 33 AUDIO
    TITLE "0:"
    INDEX 01 00:48:00
  TRACK 34 AUDIO
    TITLE "12:cjc034_04789"
    INDEX 01 00:49:37
  TRACK 35 AUDIO
    TITLE "0:"
    INDEX 01 00:50:58
  TRACK 36 AUDIO
    TITLE "13:cjc034_04790"
    INDEX 01 00:51:16
  TRACK 37 AUDIO
    TITLE "0:"
    INDEX 01 00:55:16
  TRACK 38 AUDIO
    TITLE "14:cjc034_04791"
    INDEX 01 00:55:51
  TRACK 39 AUDIO
    TITLE "0:"
    INDEX 01 00:56:72
  TRACK 40 AUDIO
    TITLE "15:cjc034_04792"
    INDEX 01 00:57:31
  TRACK 41 AUDIO
    TITLE "0:"
    INDEX 01 01:01:29
  TRACK 42 AUDIO
    TITLE "12:cjc034_04793"
    INDEX 01 01:02:63
  TRACK 43 AUDIO
    TITLE "0:"
    INDEX 01 01:03:69
  TRACK 44 AUDIO
    TITLE "13:cjc034_04794"
    INDEX 01 01:04:29
  TRACK 45 AUDIO
    TITLE "0:"
    INDEX 01 01:06:30
  TRACK 46 AUDIO
    TITLE "14:cjc034_04795"
    INDEX 01 01:06:65
  TRACK 47 AUDIO
    TITLE "0:"
    INDEX 01 01:07:72
  TRACK 48 AUDIO
    TITLE "15:cjc034_04796"
    INDEX 01 01:08:35
  TRACK 49 AUDIO
    TITLE "0:"
    INDEX 01 01:13:00
  TRACK 50 AUDIO
    TITLE "12:cjc034_04797"
    INDEX 01 01:14:37
  TRACK 51 AUDIO
    TITLE "0:"
    INDEX 01 01:15:46
  TRACK 52 AUDIO
    TITLE "13:cjc034_04798"
    INDEX 01 01:16:05
  TRACK 53 AUDIO
    TITLE "0:"
    INDEX 01 01:17:16
  TRACK 54 AUDIO
    TITLE "14:cjc034_04799"
    INDEX 01 01:17:47
  TRACK 55 AUDIO
    TITLE "0:"
    INDEX 01 01:18:54
  TRACK 56 AUDIO
    TITLE "15:cjc034_04800"
    INDEX 01 01:19:13
  TRACK 57 AUDIO
    TITLE "0:"
    INDEX 01 01:23:18
  TRACK 58 AUDIO
    TITLE "12:cjc034_04801"
    INDEX 01 01:24:53
  TRACK 59 AUDIO
    TITLE "0:"
    INDEX 01 01:25:70
  TRACK 60 AUDIO
    TITLE "13:cjc034_04802"
    INDEX 01 01:26:25
  TRACK 61 AUDIO
    TITLE "0:"
    INDEX 01 01:29:54
  TRACK 62 AUDIO
    TITLE "14:cjc034_04803"
    INDEX 01 01:30:13
  TRACK 63 AUDIO
    TITLE "0:"
    INDEX 01 01:31:30
  TRACK 64 AUDIO
    TITLE "15:cjc034_04804"
    INDEX 01 01:31:61
  TRACK 65 AUDIO
    TITLE "0:"
    INDEX 01 01:35:73
